<svg xmlns="http://www.w3.org/2000/svg" width="106" height="86" viewBox="0 0 106 86">
  <path class="cls-1" d="M95,1201H79.012c0-5.52-.012-10.43-0.012-16h7c0-17.59,0-36.38,0-54H79c0-5.58,0-10.44,0-15.98,5.51,0,10.458-.02,16-0.02v7h54v-7h16v16c-1.916,0-3.341-.08-6.062-0.08,0,17.6.061,36.48,0.062,54.08h6v15.98c-5.5,0-10.437.02-16,.02v-6c-17.612,0-36.936.01-54.052,0.01C94.948,1196.89,94.973,1199.01,95,1201Zm54-77H95v7H88v54h7v8h54v-8c3.116,0,5.379.01,8,0v-54h-8v-7Zm-23.627,44.94c-1.946-1.98-3.84-3.9-5.748-5.83-5.192,5.19-6.324,7.32-11.428,12.43-0.925-.93-1.8-1.8-2.68-2.68,5.1-5.09,6.223-7.22,11.381-12.37-1.965-1.94-3.89-3.85-5.9-5.83,6.594-1.76,13.048-3.49,19.6-5.25C128.853,1155.95,127.122,1162.41,125.373,1168.94ZM81,1117H93v12H81v-12Zm0,70H93v12H81v-12Zm70,0h12v12H151v-12Zm-15.3-44.69c0.568,0.56,1.172,1.15,1.767,1.73-0.623.6-1.247,1.19-1.839,1.76-0.53-.54-1.134-1.16-1.717-1.75C134.461,1143.51,135.077,1142.91,135.7,1142.31Zm1.683-5.79c-0.538.55-1.128,1.17-1.715,1.77-0.59-.61-1.177-1.23-1.706-1.78,0.537-.54,1.145-1.15,1.71-1.71C136.168,1135.3,136.776,1135.91,137.38,1136.52Zm5.782,9.33c-0.541-.55-1.134-1.15-1.681-1.71,0.588-.58,1.2-1.19,1.772-1.75,0.5,0.51,1.1,1.12,1.641,1.68C144.387,1144.59,143.774,1145.22,143.162,1145.85Zm1.841-9.31c-0.543.55-1.139,1.15-1.722,1.73-0.587-.62-1.18-1.24-1.754-1.84,0.522-.5,1.145-1.1,1.725-1.65C143.757,1135.29,144.365,1135.9,145,1136.54Zm-4.264-2.94v2.58h-2.584v-2.58h2.584Zm-5.366,5.38v2.58h-2.584v-2.58h2.584Zm2.8,5.37h2.562v2.59h-2.562v-2.59Zm5.337-2.8v-2.57h2.584v2.57h-2.584ZM164,1144.01h2.009V1157H164v-12.99Zm6.991,24H169V1155h1.991v13.01ZM65,1174.01h2.009V1187H65v-12.99Zm6.991,24H70V1185h1.991v13.01Zm30.257-21.88c0.731-.71.714-0.69,1.443-1.4,3.016,3.11-.95-0.98,2.078,2.15-0.721.69-.7,0.68-1.444,1.39C101.33,1175.18,103.719,1177.65,102.248,1176.13Zm-3,3c0.731-.71.714-0.69,1.443-1.4,3.016,3.11-.95-0.98,2.077,2.15-0.72.69-.7,0.68-1.442,1.39C98.33,1178.18,100.719,1180.65,99.248,1179.13Z" transform="translate(-65 -1115)"/>
</svg>
