<svg xmlns="http://www.w3.org/2000/svg" width="109" height="128" viewBox="0 0 109 128">
  <path class="cls-1" d="M169.94,1656.01H91.013c0-18.84.034-82.23,0.034-100.02h78.937C169.984,1585.19,169.94,1614.47,169.94,1656.01ZM168,1654v-96H93v96h75Zm-52.637-44c1.572,1.38,3.085,2.71,4.649,4.08-3.784,4.64-7.541,9.25-11.342,13.92-2.545-2.5-5.066-4.97-7.661-7.51,1.377-1.51,2.745-3.01,4.153-4.55,0.922,1.01,1.837,2.01,2.827,3.1C110.551,1615.9,112.923,1612.99,115.363,1610Zm0.189,2.33-7.381,9.05c-0.992-1.08-1.928-2.1-2.906-3.17-0.7.77-1.34,1.46-1.805,1.97,1.688,1.82,3.356,3.63,5.062,5.47,3.122-3.83,6.184-7.59,9.264-11.37Zm42.459,2.69v1.99H127.988v-1.99h30.023Zm-27-17.01h-2v-31h2v31ZM158,1620v1.98H128.009V1620H158Zm-19-43.01h2.007v21H139v-21Zm-21,0h2v21h-2v-21ZM152.01,1598H150v-10.99h2.014V1598Zm-42,.01h-2.007V1592h2.007v6.01Zm5.351,32.99c1.572,1.38,3.085,2.71,4.649,4.08-3.784,4.64-7.541,9.25-11.342,13.92-2.545-2.5-5.066-4.97-7.661-7.51,1.377-1.51,2.745-3.01,4.153-4.55,0.922,1.01,1.837,2.01,2.827,3.1C110.551,1636.9,112.923,1633.99,115.363,1631Zm0.189,2.33-7.381,9.05c-0.992-1.08-1.928-2.1-2.906-3.17-0.7.77-1.34,1.46-1.805,1.97,1.688,1.82,3.356,3.63,5.062,5.47,3.122-3.83,6.184-7.59,9.264-11.37Zm42.459,2.69v1.99H127.988v-1.99h30.023ZM158,1641v1.98H128.009V1641H158Zm22-55h2v40c0.238-.21,1.494-0.86,1.729-1.06,0.468,0.65.876,1.21,1.262,1.75-1.372,1.11-2.478,2.13-3.992,3.32-1.226-1.01-2.749-2.19-3.992-3.26l1.471-1.59c0.456,0.39,1,.4,1.522.84v-40Zm-99,44H79v-40c-0.238.21-1.494,0.86-1.729,1.06-0.468-.65-0.876-1.21-1.262-1.75,1.372-1.11,2.479-2.13,3.992-3.32,1.226,1.01,2.749,2.19,3.992,3.26l-1.471,1.59c-0.457-.39-1-0.4-1.522-0.84v40Zm86.985,33v2.01H155V1663h12.985Zm-23.992,6.99V1668H157v1.99H143.993ZM117.985,1542v2.01H105V1542h12.985Zm-23.992,6.99V1547H107v1.99H93.993Z" transform="translate(-76 -1542)"/>
</svg>
