<svg xmlns="http://www.w3.org/2000/svg" width="91.531" height="91.68" viewBox="0 0 91.531 91.68">
  <path class="cls-1" d="M107.082,2126.11a32.458,32.458,0,1,1,32.427,32.68A32.5,32.5,0,0,1,107.082,2126.11Zm23.6,0.13a14.884,14.884,0,0,1-2.559-21.21,14.724,14.724,0,0,1,19.47-3,14.405,14.405,0,0,1,6.662,11.85c0.226,5.08-1.921,9.08-5.793,12.34a10.587,10.587,0,0,1,10.359,10.37h4.31v3h-2.767c-0.374,2.89-.735,5.69-1.1,8.54a29.515,29.515,0,1,0-49.177-23.82,29.735,29.735,0,0,0,2.243,13.35,29.383,29.383,0,0,0,8.02,11.01v-0.97c0-3.67-.033-7.34.01-11.01A10.37,10.37,0,0,1,130.677,2126.24Zm-2.94-11.96a11.812,11.812,0,1,0,11.45-11.7A11.826,11.826,0,0,0,127.737,2114.28Zm2.953,22.34v0.91c0,5.41.006,10.83-.011,16.24a0.759,0.759,0,0,0,.666.89,28.524,28.524,0,0,0,15.759.14c1.668-.47,3.285-1.12,4.925-1.68-0.019-.08-0.039-0.17-0.059-0.25h-0.728c-3.2-.02-6.408.01-9.61-0.07a4.241,4.241,0,0,1-3.848-3.46c-0.276-1.62-.483-3.26-0.7-4.89-0.215-1.6-.407-3.21-0.617-4.88h-2.781v-2.99h9.36c-0.648-1.32-1.245-2.53-1.855-3.77,0.9-.44,1.736-0.85,2.632-1.29,0.708,1.41,1.424,2.76,2.054,4.15a1.36,1.36,0,0,0,1.476.94c2.539-.07,5.081-0.03,7.621-0.03h0.762c0.01-.18.022-0.29,0.021-0.4-0.031-3.39-3.174-6.82-6.542-6.9-5.216-.11-10.435-0.07-15.652-0.08-1.258,0-2.519,0-3.774.07a7.342,7.342,0,0,0-6.43,6.64c-0.066,4.86-.029,9.73-0.013,14.59a0.851,0.851,0,0,0,.353.64c1.161,0.68,2.348,1.32,3.531,1.96a3.718,3.718,0,0,0,.538.2v-16.68h2.924Zm16.4,8.02a24.782,24.782,0,0,1-1.58-3.2,2.451,2.451,0,0,0-3.09-1.89,19.379,19.379,0,0,1-2.853.02,12.906,12.906,0,0,0,.01,1.62c0.336,2.44.7,4.89,1.061,7.33a1.468,1.468,0,0,0,1.571,1.39q6.176,0.015,12.35,0a1.482,1.482,0,0,0,1.613-1.42c0.314-2.13.64-4.26,0.929-6.39,0.112-.82.137-1.65,0.2-2.47h-9.417c0.627,1.28,1.218,2.47,1.828,3.71C148.838,2143.78,148.005,2144.19,147.093,2144.64Zm-7.51-56.87v-2.99a41.585,41.585,0,0,1,41.238,39.28,2.235,2.235,0,0,1,.226.11c0.272-.33.542-0.67,0.817-1s0.531-.63.8-0.94c0.746,0.79,1.4,1.49,2.012,2.15-1.64,1.64-3.367,3.37-5.163,5.17-1.712-1.13-3.492-2.32-5.345-3.55,0.54-.82,1.061-1.61,1.62-2.46,0.679,0.44,1.32.86,2.093,1.37a38.644,38.644,0,0,0-5.589-18.64A38.164,38.164,0,0,0,158.3,2092.7,37.554,37.554,0,0,0,139.583,2087.77Zm-0.057,76.94v2.97a40.6,40.6,0,0,1-28.4-11.42c-7.913-7.52-12.112-16.86-12.874-27.93-0.39.38-.691,0.66-0.982,0.95s-0.57.6-.879,0.92c-0.662-.74-1.293-1.45-1.884-2.12,1.573-1.57,3.312-3.31,5.123-5.13,1.674,1.12,3.455,2.3,5.3,3.53-0.544.82-1.064,1.62-1.622,2.46-0.685-.44-1.325-0.86-2.1-1.37A38.406,38.406,0,0,0,139.526,2164.71Zm33.941,7.4a11.83,11.83,0,1,1,11.83-11.55A11.719,11.719,0,0,1,173.467,2172.11Zm-8.812-11.85a8.852,8.852,0,1,0,8.736-8.85A8.873,8.873,0,0,0,164.655,2160.26ZM93.8,2092.09a11.8,11.8,0,1,1,12.165,11.94A11.7,11.7,0,0,1,93.8,2092.09Zm11.752,9a8.87,8.87,0,1,0-8.83-8.97A8.866,8.866,0,0,0,105.548,2101.09Zm68.265-11.08c0.624,0.62,1.288,1.27,1.943,1.91-0.685.66-1.372,1.31-2.023,1.93-0.583-.59-1.247-1.27-1.889-1.92C172.452,2091.34,173.13,2090.68,173.813,2090.01Zm1.85-6.37c-0.592.61-1.241,1.29-1.886,1.96-0.65-.68-1.295-1.36-1.877-1.97l1.881-1.88C174.33,2082.3,175,2082.97,175.663,2083.64ZM96.95,2162.49c-0.639-.63-1.3-1.29-1.938-1.92,0.672-.66,1.347-1.33,2.026-2,0.6,0.63,1.246,1.32,1.9,2.01C98.321,2161.17,97.638,2161.83,96.95,2162.49Zm6.453-2.07c0.6-.57,1.268-1.21,1.892-1.81,0.621,0.62,1.289,1.29,1.96,1.97-0.6.56-1.294,1.2-1.969,1.82C104.746,2161.84,104.094,2161.15,103.4,2160.42Zm78.621-66.51c-0.6-.61-1.247-1.27-1.85-1.88,0.647-.64,1.319-1.31,1.95-1.93,0.546,0.56,1.206,1.24,1.805,1.85C183.371,2092.53,182.7,2093.22,182.024,2093.91Zm-76.767,76.93c-0.6-.6-1.256-1.25-1.92-1.91,0.689-.65,1.38-1.29,2.049-1.92,0.55,0.58,1.207,1.26,1.826,1.9C106.638,2169.48,105.962,2170.14,105.257,2170.84Zm-8.2-3.91c0.616,0.63,1.272,1.29,1.9,1.92-0.658.65-1.333,1.32-1.991,1.97-0.586-.61-1.248-1.29-1.885-1.94C95.688,2168.28,96.362,2167.62,97.06,2166.93Zm86.989-83.26c-0.6.6-1.254,1.26-1.9,1.9-0.646-.68-1.3-1.36-1.929-2.03,0.574-.55,1.26-1.2,1.9-1.81C182.678,2082.29,183.347,2082.96,184.049,2083.67Zm-87.365,82.47H93.843v-2.85h2.841v2.85Zm11.818-2.84v2.83H105.66v-2.83H108.5Zm-5.909,5.93v2.81H99.768v-2.81h2.825Zm0.007-11.85v2.83H99.758v-2.83H102.6Zm76.758-76.95v2.84h-2.842v-2.84h2.842Zm-5.9,5.92v2.84h-2.843v-2.84h2.843Zm3.078,5.91h2.818v2.85h-2.818v-2.85Zm5.87-3.08v-2.82h2.842v2.82H182.4Zm-10.373,65.2v-1.44h2.926v1.41c2.315,1,3.2,2.33,2.9,4.39h-2.781a0.228,0.228,0,0,1-.07-0.1c-0.116-1.3-.124-1.31-1.432-1.31a1.988,1.988,0,0,0-.813.03,1.177,1.177,0,0,0-.673.66,1.014,1.014,0,0,0,.616.73,4.4,4.4,0,0,0,1.361.05,3.7,3.7,0,0,1,1.312,7.22,0.772,0.772,0,0,0-.381.51,6.672,6.672,0,0,0-.018,1.11h-2.839a0.364,0.364,0,0,1-.077-0.13,1.583,1.583,0,0,0-1.146-1.87,3.478,3.478,0,0,1-1.765-3.86c0.1-.01.209-0.02,0.318-0.02h2.507c0.02,0.23.041,0.43,0.051,0.63a0.815,0.815,0,0,0,.928.86c0.366,0,.732.01,1.1,0a0.767,0.767,0,0,0,.91-0.79,0.755,0.755,0,0,0-.906-0.71,11.387,11.387,0,0,1-2.11-.13,3.588,3.588,0,0,1-2.865-3.26,3.722,3.722,0,0,1,2.413-3.77C171.661,2154.53,171.828,2154.46,172.031,2154.38Zm-64.98-56.27v1.45h-2.9v-1.42c-2.358-1.07-3.175-2.3-2.914-4.39h2.885c0,0.2,0,.38,0,0.56a0.683,0.683,0,0,0,.706.82c0.737-.08,1.652.46,2.174-0.47a0.688,0.688,0,0,0-.715-0.96c-0.592-.04-1.19-0.01-1.78-0.06a3.63,3.63,0,0,1-3.261-2.93,3.549,3.549,0,0,1,2.04-4.02,1.134,1.134,0,0,0,.844-1.41,2.77,2.77,0,0,1,.019-0.43h2.807a0.342,0.342,0,0,1,.082.11,1.635,1.635,0,0,0,1.133,1.88,3.531,3.531,0,0,1,1.828,3.85h-2.818a0.289,0.289,0,0,1-.069-0.1c-0.093-.45.115-1.12-0.49-1.23a7.34,7.34,0,0,0-2.142.05,0.805,0.805,0,0,0-.305.71,1.1,1.1,0,0,0,.72.58c0.717,0.11,1.472-.01,2.178.14a3.6,3.6,0,0,1,2.95,3.34,3.713,3.713,0,0,1-2.467,3.73C107.406,2097.96,107.259,2098.02,107.051,2098.11Z" transform="translate(-93.781 -2080.41)"/>
</svg>
