<svg xmlns="http://www.w3.org/2000/svg" width="98" height="90" viewBox="0 0 98 90">
  <path id="Shape_10_copy" data-name="Shape 10 copy" class="cls-1" d="M162,2713c0.939,0,1.535.13,3.063,0.06,0-19.09-.046-38.89-0.046-58.05,0.911,0,1.073-.01,1.983-0.01v58c1.8,0.03,3.509.13,6,0,0.063,0.35,0,1.11,0,2H89.988c0-.81.012-1.08,0.012-2h6v-30h2v30h3v-30h2v30h14v-50h2v50c0.923,0,1.728.04,3.062,0.04,0-16.41.028-33.54,0.028-50.02,0.9,0,1-.02,1.91-0.02v50h14v-34h2c0,11.12,0,28.13,0,34,1.607,0.06,3.076,0,4,0v-34c0.873,0,.922-0.02,2,0,0.037,11.33,0,22.87,0,34,3.5,0,17.544.12,14,0,0.012-19.11,0-38.86,0-58h2v58Zm-71-43.51a8.5,8.5,0,1,1,8.494,8.52A8.5,8.5,0,0,1,91,2669.49Zm13.593,4c1.87-1.94,2.163-5.97-.446-8.66a6.719,6.719,0,0,0-9.673.09c-2.561,2.77-2.146,6.75-.439,8.48,0.644-.96,1.3-1.94,2-2.97-1.094-2.07-.841-4.05.77-5.37a4.054,4.054,0,0,1,5.056-.03c1.644,1.3,1.911,3.28.757,5.52a14.317,14.317,0,0,1,1.166,1.37A14,14,0,0,1,104.593,2673.49Zm-5.014,2.8c0.791-.19,1.455-0.33,2.1-0.53a0.642,0.642,0,0,0,.342-0.48,3.9,3.9,0,0,0-.125-1.22,2.633,2.633,0,0,0-3.173-1.79,2.754,2.754,0,0,0-2.027,3.13,0.586,0.586,0,0,0,.391.37C97.939,2675.98,98.8,2676.14,99.579,2676.29Zm-0.234-9.47a1.4,1.4,0,0,0-1.339,1.37A1.351,1.351,0,1,0,99.346,2666.82ZM179,2676.99h-1.993v-12.98H179v12.98Zm-98,3.02h2.009V2693H81v-12.99Zm6.991,24H86V2691h1.991v13.01Zm43.022-68h1.978V2641h-1.978v-4.99Zm4-2V2632H140v2.01h-4.988ZM129,2632v2.01h-5V2632h5Zm2.011-7h1.984v5H131.01v-5ZM175,2663.01h-2v-5.02h2v5.02Zm-63-12.52a8.5,8.5,0,1,1,8.493,8.52A8.5,8.5,0,0,1,112,2650.49Zm13.593,4c1.87-1.94,2.163-5.97-.446-8.66a6.719,6.719,0,0,0-9.673.09c-2.561,2.77-2.146,6.75-.439,8.48,0.643-.96,1.3-1.94,2-2.97-1.093-2.07-.841-4.05.771-5.37a4.053,4.053,0,0,1,5.056-.03c1.644,1.3,1.911,3.28.757,5.52a14.317,14.317,0,0,1,1.166,1.37A14,14,0,0,1,125.593,2654.49Zm-5.014,2.8c0.791-.19,1.455-0.33,2.1-0.53a0.642,0.642,0,0,0,.342-0.48,3.9,3.9,0,0,0-.125-1.22,2.633,2.633,0,0,0-3.173-1.79,2.755,2.755,0,0,0-2.027,3.13,0.621,0.621,0,0,0,.391.38C118.939,2656.98,119.8,2657.14,120.579,2657.29Zm-0.233-9.47a1.4,1.4,0,0,0-1.34,1.37A1.351,1.351,0,1,0,120.346,2647.82ZM134,2666.49a8.5,8.5,0,1,1,8.493,8.52A8.5,8.5,0,0,1,134,2666.49Zm13.593,4c1.87-1.94,2.163-5.97-.446-8.66a6.719,6.719,0,0,0-9.673.09c-2.561,2.77-2.146,6.75-.439,8.48,0.643-.96,1.3-1.94,2-2.97-1.093-2.07-.841-4.05.771-5.37a4.053,4.053,0,0,1,5.056-.03c1.644,1.3,1.911,3.28.757,5.52a14.174,14.174,0,0,1,1.166,1.37A14,14,0,0,1,147.593,2670.49Zm-5.014,2.81c0.791-.2,1.455-0.34,2.1-0.54a0.644,0.644,0,0,0,.342-0.48,3.9,3.9,0,0,0-.125-1.22,2.633,2.633,0,0,0-3.173-1.79,2.755,2.755,0,0,0-2.027,3.13,0.584,0.584,0,0,0,.391.37C140.939,2672.98,141.8,2673.14,142.579,2673.3Zm-0.233-9.48a1.4,1.4,0,0,0-1.34,1.37A1.351,1.351,0,1,0,142.346,2663.82ZM155,2642.49a8.5,8.5,0,1,1,8.493,8.52A8.5,8.5,0,0,1,155,2642.49Zm13.593,4c1.87-1.94,2.163-5.97-.446-8.66a6.719,6.719,0,0,0-9.673.09c-2.561,2.77-2.146,6.75-.439,8.48,0.643-.96,1.3-1.94,2-2.97-1.093-2.07-.841-4.05.771-5.37a4.053,4.053,0,0,1,5.056-.03c1.644,1.3,1.911,3.28.757,5.52a14.174,14.174,0,0,1,1.166,1.37A14,14,0,0,1,168.593,2646.49Zm-5.014,2.8c0.791-.19,1.455-0.33,2.1-0.53a0.644,0.644,0,0,0,.342-0.48,3.9,3.9,0,0,0-.125-1.22,2.633,2.633,0,0,0-3.173-1.79,2.755,2.755,0,0,0-2.027,3.13,0.621,0.621,0,0,0,.391.38C161.939,2648.98,162.8,2649.14,163.579,2649.29Zm-0.233-9.47a1.4,1.4,0,0,0-1.34,1.37A1.351,1.351,0,1,0,163.346,2639.82Z" transform="translate(-81 -2625)"/>
</svg>
