<svg xmlns="http://www.w3.org/2000/svg" width="93.562" height="93.62" viewBox="0 0 93.562 93.62">
  <path class="cls-1" d="M189.78,3294.8h-2.92v-1.01q0-29.505,0-59.01a30.01,30.01,0,0,0-6.66-19.45,29.946,29.946,0,0,0-41.6-4.98,29.427,29.427,0,0,0-11.379,19.06,22.7,22.7,0,0,0-.306,3.72c-0.032,6.17-.017,12.34-0.018,18.51v0.74H131.7c0.34,0,.682-0.02,1.02.01a1.46,1.46,0,0,1,1.445,1.43c0.024,0.25.021,0.5,0.021,0.75q0,7.995,0,15.99v0.85h26.288v2.93h-4.29v20.43H143.011v-2.84h10.141v-17.59H133.52c-0.2,0-.409.01-0.612,0a1.475,1.475,0,0,1-1.637-1.71q0-8.19,0-16.4v-0.89H130.5c-1.61,0-3.22.01-4.83,0a1.532,1.532,0,0,1-1.728-1.72c0-6.96-.136-13.93.045-20.89a31.24,31.24,0,0,1,6.933-18.86,31.79,31.79,0,0,1,21.386-12.34c10.853-1.44,20.271,1.8,28.03,9.57a31.84,31.84,0,0,1,9,17.83,34.613,34.613,0,0,1,.432,5.48q0.043,29.82.018,59.62v0.77Zm-89.2-42.38h2.873v40.88h-2.873v-40.88Zm14.668,4.41h2.8v26.24h-2.8v-26.24Zm-7.414-42.48v2.89H103.5v4.37h-2.97v-4.34h-4.32v-2.88h4.311v-4.38h2.97v4.34h4.343Zm0.069,29.32h2.835v17.49H107.9v-17.49Zm15.99-36.64h-2.84v2.88H118.11v-2.88h-2.878v-2.9h2.824v-2.89h2.959v2.86h2.877v2.93Zm-10.166,20.44v-2.86h-2.888v-2.92h2.867v-2.9h2.927v2.85h2.876v2.93h-2.859v2.9h-2.923Zm1.52,17.65h2.775a1.725,1.725,0,0,1,.057.29c0,2.78,0,5.57,0,8.4h-2.834v-8.69Zm-14.693-4.5v-5.75h2.88v5.75h-2.88Zm0.032,3.05h2.861v5.76h-2.861v-5.76Z" transform="translate(-96.219 -3201.19)"/>
</svg>
